{"title":"Taylor Swift-You Belong With Me 1080p ~Abhinav4u~","uid":7142050,"size":167872369,"categoryP":"video","categoryS":"music_videos","magnet":"?xt=urn:btih:19d03ff43ff62b5bf911c4272d54767ba4765b7f&amp;dn=Taylor+Swift-You+Belong+With+Me+1080p+%7EAbhinav4u%7E&amp;tr=udp%3A%2F%2Ftracker.openbittorrent.com%3A80&amp;tr=udp%3A%2F%2Fopen.demonii.com%3A1337&amp;tr=udp%3A%2F%2Ftracker.coppersurfer.tk%3A6969&amp;tr=udp%3A%2F%2Fexodus.desync.com%3A6969","seeders":5,"leechers":1,"uploader":"Abhinav4u","files":3,"time":1333032247,"description":"INFO:-\nVieo:-\n\nFormat                           : AVC\nFormat/Info                      : Advanced Video Codec\nFormat profile                   : &lt;a class=&quot;__cf_email__&quot; href=&quot;/cdn-cgi/l/email-protection&quot; data-cfemail=&quot;afe7c6c8c7efe39b819f&quot;&gt;[email&amp;#160;protected]&lt;/a&gt;&lt;script cf-hash='f9e31' type=&quot;text/javascript&quot;&gt;\n/* &lt;![CDATA[ */!function(){try{var t=&quot;currentScript&quot;in document?document.currentScript:function(){for(var t=document.getElementsByTagName(&quot;script&quot;),e=t.length;e--;)if(t[e].getAttribute(&quot;cf-hash&quot;))return t[e]}();if(t&amp;&amp;t.previousSibling){var e,r,n,i,c=t.previousSibling,a=c.getAttribute(&quot;data-cfemail&quot;);if(a){for(e=&quot;&quot;,r=parseInt(a.substr(0,2),16),n=2;a.length-n;n+=2)i=parseInt(a.substr(n,2),16)^r,e+=String.fromCharCode(i);e=document.createTextNode(e),c.parentNode.replaceChild(e,c)}}}catch(u){}}();/* ]]&gt; */&lt;/script&gt;\nFormat settings, CABAC           : Yes\nFormat settings, ReFrames        : 4 frames\nFormat settings, GOP             : M=1, N=30\nMuxing mode                      : Header stripping\nCodec ID                         : V_MPEG4/ISO/AVC\nDuration                         : 3mn 47s\nBit rate                         : 5 517 Kbps\nWidth                            : 1 920 pixels\nHeight                           : 1 080 pixels\nDisplay aspect ratio             : 16:9\nFrame rate mode                  : Variable\nFrame rate                       : 29.970 fps\nColor space                      : YUV\nChroma subsampling               : 4:2:0\nBit depth                        : 8 bits\nScan type                        : Progressive\nBits/(Pixel*Frame)               : 0.089\nStream size                      : 146 MiB (92%)\nTitle                            : 1080p ~Abhinav4u~\n\nAudio:-\n\nFormat                           : AC-3\nFormat/Info                      : Audio Coding 3\nMode extension                   : CM (complete main)\nMuxing mode                      : Header stripping\nCodec ID                         : A_AC3\nDuration                         : 3mn 47s\nBit rate mode                    : Constant\nBit rate                         : 384 Kbps\nChannel(s)                       : 2 channels\nChannel positions                : Front: L R\nSampling rate                    : 48.0 KHz\nBit depth                        : 16 bits\nCompression mode                 : Lossy\nStream size                      : 10.4 MiB (7%)\nTitle                            : ~Abhinav4u~\nLanguage                         : English\n\nScreenshots:- &lt;a href=&quot;\nhttp://i.minus.com/ioMFiwJo9VYQ0.png&quot; rel=&quot;nofollow&quot; target=&quot;_NEW&quot;&gt;\nhttp://i.minus.com/ioMFiwJo9VYQ0.png&lt;/a&gt; &lt;a href=&quot;\nhttp://i.minus.com/i3CzyMGJsc8Wd.png&quot; rel=&quot;nofollow&quot; target=&quot;_NEW&quot;&gt;\nhttp://i.minus.com/i3CzyMGJsc8Wd.png&lt;/a&gt; &lt;a href=&quot;\nhttp://i.minus.com/iBscNuV2JH3uv.png&quot; rel=&quot;nofollow&quot; target=&quot;_NEW&quot;&gt;\nhttp://i.minus.com/iBscNuV2JH3uv.png&lt;/a&gt; &lt;a href=&quot;\nhttp://i.minus.com/ijnxhvkXz3AUT.png&quot; rel=&quot;nofollow&quot; target=&quot;_NEW&quot;&gt;\nhttp://i.minus.com/ijnxhvkXz3AUT.png&lt;/a&gt; &lt;a href=&quot;\nhttp://i.minus.com/iGDlkrLeMw6BG.png&quot; rel=&quot;nofollow&quot; target=&quot;_NEW&quot;&gt;\nhttp://i.minus.com/iGDlkrLeMw6BG.png&lt;/a&gt; &lt;a href=&quot;\nhttp://i.minus.com/ib9zGaY56IGvh.png&quot; rel=&quot;nofollow&quot; target=&quot;_NEW&quot;&gt;\nhttp://i.minus.com/ib9zGaY56IGvh.png&lt;/a&gt;\n\nEnjoy the quality..\nRegards::Abhinav4u","torrent":{"xt":"urn:btih:19d03ff43ff62b5bf911c4272d54767ba4765b7f","amp;dn":"Taylor+Swift-You+Belong+With+Me+1080p+%7EAbhinav4u%7E","amp;tr":["udp%3A%2F%2Ftracker.openbittorrent.com%3A80","udp%3A%2F%2Fopen.demonii.com%3A1337","udp%3A%2F%2Ftracker.coppersurfer.tk%3A6969","udp%3A%2F%2Fexodus.desync.com%3A6969"],"infoHash":"19d03ff43ff62b5bf911c4272d54767ba4765b7f","infoHashBuffer":{"type":"Buffer","data":[25,208,63,244,63,246,43,91,249,17,196,39,45,84,118,123,164,118,91,127]},"announce":[],"urlList":[]}}